# xmcd CD database file
#
# Track frame offsets:
#	150
#	18185
#	61220
#	75343
#	116558
#	128653
#
# Disc length: 1921 seconds
#
# Revision: 3
# Processed by: cddbd v1.5.1PL2 Copyright (c) Steve Scherf et al.
# Submitted via: CDex 1.51
#
DISCID=3b077f06
DTITLE=Art Pepper/Sonny Redd - Two Altos
DYEAR=1957
DGENRE=Jazz
TTITLE0=Deep Purple
TTITLE1=Watkins Products
TTITLE2=Everything Happens To Me
TTITLE3=Redd's Head
TTITLE4=These Foolish Things
TTITLE5=What's New
EXTD=YEAR: 1957
EXTT0=
EXTT1=
EXTT2=
EXTT3=
EXTT4=
EXTT5=
PLAYORDER=
